# Blender 3.6.1
# www.blender.org
mtllib rock.mtl
o Cube
v 0.928077 -0.580823 -1.031069
v 0.793568 -0.548190 1.029094
v -1.080388 -0.544906 0.836281
v -0.747841 -0.588710 -0.800773
v 1.223232 0.545396 -1.087343
v 0.549490 0.541404 1.444346
v -0.973700 0.643571 1.085037
v -0.821483 0.623478 -1.321940
v 1.059926 -0.601254 -0.068185
v 0.020076 -0.550619 -0.853583
v 1.166650 0.026695 -1.157594
v -0.091933 -0.584446 1.134389
v 1.085671 -0.004942 1.299178
v -0.919193 -0.732350 -0.090483
v -1.401071 -0.068125 0.924245
v -1.028928 0.018135 -1.195872
v 1.038420 0.718789 0.007633
v 0.212704 0.620228 -1.489271
v -0.270473 0.582094 1.497708
v -1.135032 0.738524 -0.057874
v 0.038665 -0.782404 -0.042641
v 0.070357 0.845985 -0.183868
v 1.252979 0.116926 0.044136
v 0.025306 -0.030257 1.406509
v -1.545089 -0.061578 -0.076778
v 0.003220 -0.057956 -1.517584
v 0.949589 -0.584329 0.627027
v -0.362355 -0.568451 -0.738472
v 1.283648 0.327326 -1.138559
v -0.660643 -0.551961 1.023267
v 0.847613 0.319290 1.378659
v -0.830536 -0.679101 -0.544951
v -1.198927 0.394430 1.075606
v -0.921785 0.380445 -1.345509
v 0.763278 0.737883 0.903763
v -0.300749 0.646167 -1.530255
v -0.711327 0.625031 1.229852
v -1.060197 0.710161 -0.844637
v 0.986070 -0.642125 -0.687873
v 0.540829 -0.598888 -0.976489
v 1.067627 -0.342080 -1.122963
v 0.459608 -0.590022 1.096501
v 0.970363 -0.364581 1.177803
v -1.064822 -0.665292 0.464302
v -1.287609 -0.385604 0.865060
v -0.972100 -0.373518 -0.988492
v 1.218596 0.653217 -0.703974
v 0.799281 0.602523 -1.256565
v 0.194424 0.600488 1.503547
v -1.026667 0.730267 0.687147
v -0.383365 -0.753241 -0.090253
v 0.529189 -0.778608 -0.086746
v 0.127619 -0.687937 -0.542257
v 0.000695 -0.759655 0.516300
v -0.058739 0.822408 0.694026
v 0.048271 0.774761 -0.935266
v 0.584683 0.847499 -0.022550
v -0.542977 0.828367 -0.070896
v 1.274123 0.130745 0.788514
v 1.285713 0.095581 -0.653680
v 1.297971 -0.227280 0.060073
v 1.175082 0.466073 0.166213
v -0.791644 -0.095077 1.291130
v 0.567071 -0.060778 1.446355
v -0.060276 -0.290672 1.425769
v 0.030330 0.177929 1.535789
v -1.505331 -0.063557 -0.727105
v -1.534976 -0.042908 0.478384
v -1.391287 -0.561844 -0.136476
v -1.467919 0.436787 -0.050520
v -0.589469 -0.043111 -1.386358
v 0.619113 -0.045750 -1.406651
v 0.160790 0.327732 -1.671870
v -0.051335 -0.370496 -1.228889
v -0.520824 -0.716797 0.526356
v -0.531957 0.805176 0.688264
v 1.121690 0.491829 0.904143
v -0.762908 0.243139 1.366655
v -1.431520 0.465732 -0.708167
v -0.555297 -0.371569 -1.075261
v -0.390462 -0.705542 -0.491120
v 0.536440 -0.752821 -0.565654
v 0.449085 -0.739049 0.535520
v 0.363545 0.834602 0.811616
v 0.720046 0.791461 -0.713345
v -0.549363 0.780458 -0.796085
v 1.284779 -0.297110 0.703516
v 1.282791 -0.319011 -0.649530
v 1.351975 0.409000 -0.640375
v -0.729986 -0.321665 1.240324
v 0.527274 -0.335868 1.372086
v 0.499801 0.224846 1.487310
v -1.256922 -0.507394 -0.690107
v -1.446131 -0.430289 0.513964
v -1.370716 0.464902 0.566270
v -0.321713 0.380493 -1.623884
v 0.779402 0.315631 -1.461811
v 0.616566 -0.330681 -1.225837
vn -0.2005 -0.8381 0.5074
vn -0.3498 -0.7999 0.4876
vn -0.3034 -0.9365 0.1756
vn -0.4098 0.8938 0.1821
vn -0.4212 0.7539 0.5042
vn -0.2979 0.7368 0.6069
vn 0.3788 0.8784 0.2914
vn 0.3231 0.4818 0.8145
vn 0.5065 0.3372 0.7936
vn -0.7087 0.3439 0.6161
vn -0.8365 0.4608 -0.2967
vn -0.3987 0.8872 -0.2323
vn -0.4147 0.6661 -0.6199
vn -0.0279 -0.8793 -0.4755
vn 0.0077 -0.8065 -0.5912
vn -0.3404 -0.6271 -0.7007
vn -0.0080 -0.9557 -0.2943
vn -0.0410 -0.9979 -0.0494
vn -0.1917 -0.9803 -0.0467
vn 0.0327 -0.9770 -0.2105
vn 0.1607 -0.9867 0.0225
vn -0.0442 -0.9975 -0.0552
vn 0.1478 -0.9754 0.1634
vn 0.1178 -0.8787 0.4626
vn -0.0632 -0.8538 0.5167
vn -0.0463 0.9890 0.1408
vn -0.1626 0.5633 0.8101
vn 0.0540 0.5815 0.8118
vn 0.1630 0.9740 -0.1571
vn 0.0128 0.9851 -0.1713
vn -0.0163 0.9991 -0.0403
vn -0.0772 0.9890 -0.1262
vn -0.4278 0.9039 0.0074
vn 0.8909 -0.4087 0.1980
vn 0.9683 0.1642 0.1882
vn 0.6926 -0.0646 0.7184
vn 0.9276 -0.3275 -0.1794
vn 0.9907 -0.1111 -0.0780
vn 0.9871 0.1602 -0.0039
vn 0.9900 0.1388 0.0269
vn 0.6351 0.7677 -0.0856
vn 0.5743 0.8153 0.0734
vn -0.3229 -0.5008 0.8031
vn -0.3644 -0.2193 0.9051
vn -0.8157 -0.0701 0.5743
vn 0.1776 -0.1953 0.9645
vn -0.1309 -0.2109 0.9687
vn -0.0976 -0.3380 0.9361
vn 0.1923 0.0185 0.9812
vn -0.9006 -0.1913 -0.3902
vn -0.5553 -0.2930 -0.7784
vn -0.9897 0.0395 0.1373
vn -0.9967 -0.0774 -0.0261
vn -0.7286 -0.6770 -0.1042
vn -0.8306 0.5165 0.2081
vn -0.2107 0.0185 -0.9774
vn -0.2952 -0.4626 -0.8360
vn 0.4082 0.0886 -0.9086
vn 0.2705 -0.4052 -0.8733
vn -0.0210 -0.5065 -0.8620
vn -0.0110 -0.8521 -0.5233
vn -0.1312 -0.9104 -0.3923
vn -0.0874 -0.7732 -0.6281
vn -0.0910 -0.9808 0.1724
vn -0.0223 -0.9875 0.1563
vn -0.0904 0.9841 0.1528
vn -0.0881 0.9960 -0.0176
vn 0.7568 0.5693 0.3213
vn 0.9283 0.3670 0.0591
vn -0.3821 0.0259 0.9237
vn -0.0658 -0.2019 0.9772
vn -0.5779 0.0793 -0.8123
vn -0.8894 0.4549 0.0446
vn -0.1392 -0.8002 -0.5834
vn -0.1420 -0.9548 -0.2613
vn -0.1106 -0.9508 -0.2895
vn 0.4813 -0.8597 -0.1712
vn 0.5949 -0.8028 0.0391
vn 0.4478 -0.8768 0.1752
vn 0.3158 -0.8690 0.3809
vn 0.0546 0.9814 0.1840
vn 0.1362 0.9907 -0.0001
vn 0.2826 0.7757 -0.5643
vn 0.1604 0.7569 -0.6335
vn -0.1067 0.7171 -0.6888
vn 0.5270 -0.6051 0.5968
vn 0.9794 -0.2011 -0.0155
vn 0.5869 -0.4026 -0.7025
vn 0.7363 -0.2604 -0.6245
vn 0.8564 0.0027 -0.5164
vn 0.6602 0.6200 -0.4240
vn -0.6089 -0.5446 0.5767
vn 0.1653 -0.5283 0.8328
vn -0.5894 -0.6879 -0.4235
vn -0.8124 -0.5511 0.1905
vn 0.1248 0.0406 -0.9913
vn 0.1550 -0.5774 -0.8016
vn 0.2946 -0.7285 -0.6185
vt 0.954480 0.849271
vt 0.928419 0.927803
vt 0.863436 0.930200
vt 0.008039 0.204670
vt 0.000000 0.132573
vt 0.039529 0.095604
vt 0.311374 0.087613
vt 0.250779 0.002145
vt 0.306623 0.000000
vt 0.719278 0.123288
vt 0.719977 0.076357
vt 0.764869 0.035858
vt 0.174001 0.599009
vt 0.197192 0.675679
vt 0.156018 0.756248
vt 0.634291 0.825700
vt 0.630335 0.895696
vt 0.597492 0.941194
vt 0.681118 0.825194
vt 0.753418 0.816616
vt 0.762623 0.912910
vt 0.651962 0.659792
vt 0.738144 0.652667
vt 0.754845 0.739841
vt 0.850275 0.656789
vt 0.948163 0.646763
vt 0.964699 0.745076
vt 0.176630 0.160827
vt 0.104906 0.029172
vt 0.185862 0.007620
vt 0.375217 0.372424
vt 0.267651 0.440920
vt 0.237983 0.308684
vt 0.156978 0.443033
vt 0.070070 0.473984
vt 0.022048 0.339766
vt 0.678618 0.125839
vt 0.603538 0.102198
vt 0.635611 0.016852
vt 0.656462 0.367855
vt 0.582188 0.360176
vt 0.591447 0.235707
vt 0.527054 0.350390
vt 0.480652 0.358988
vt 0.480652 0.233570
vt 0.887982 0.120270
vt 0.846258 0.108917
vt 0.851556 0.000000
vt 0.834982 0.353550
vt 0.831012 0.255928
vt 0.877053 0.240541
vt 0.782984 0.341189
vt 0.715758 0.285912
vt 0.719565 0.202081
vt 0.084742 0.563864
vt 0.063912 0.683299
vt 0.001577 0.646830
vt 0.276111 0.686880
vt 0.275444 0.785676
vt 0.197192 0.789463
vt 0.371829 0.667955
vt 0.434680 0.636511
vt 0.434680 0.772249
vt 0.084232 0.842926
vt 0.029799 0.759002
vt 0.472221 0.821118
vt 0.434680 0.760612
vt 0.472221 0.700732
vt 0.576060 0.667506
vt 0.606605 0.759258
vt 0.538013 0.780211
vt 0.865608 0.831090
vt 0.855153 0.737326
vt 0.094210 0.182737
vt 0.125811 0.316029
vt 0.539458 0.076752
vt 0.576498 0.000000
vt 0.530440 0.208134
vt 0.399225 0.232112
vt 0.374921 0.071199
vt 0.783890 0.113757
vt 0.790460 0.256393
vt 0.117023 0.733120
vt 0.365403 0.780437
vt 0.375922 0.896118
vt 0.280749 0.899833
vt 0.000000 0.466060
vt 0.514477 0.882562
vt 0.574503 0.867951
vt 0.678943 0.905285
vt 0.662458 0.733331
vt 0.620394 0.582317
vt 0.729296 0.558887
vt 0.855358 0.566967
vt 0.929510 0.588430
vt 0.245211 0.121605
vt 0.320760 0.257722
vt 0.413813 0.463537
vt 0.462474 0.348453
vt 0.321494 0.530218
vt 0.233442 0.560154
vt 0.133257 0.546718
vt 0.858693 0.508327
vt 0.950164 0.555960
vt 0.715758 0.273412
vt 0.653869 0.239079
vt 0.649130 0.456348
vt 0.710337 0.386068
vt 0.583519 0.453467
vt 0.531338 0.442089
vt 0.492624 0.429528
vt 0.934722 0.133471
vt 0.909680 0.020756
vt 0.937152 0.235756
vt 0.886059 0.346687
vt 0.895927 0.427159
vt 0.938702 0.335347
vt 0.828464 0.447478
vt 0.768701 0.404189
vt 0.727573 0.350145
vt 0.657980 0.985883
vt 0.760232 1.000000
vt 0.216568 0.883648
vt 0.875553 1.000000
vt 0.934844 0.966010
vt 0.276149 0.603365
vt 0.213510 0.676259
vt 0.365636 0.571791
vt 0.420205 0.563864
vt 0.132667 0.848962
vt 0.110147 0.910017
vt 0.055063 0.908592
vt 0.000000 0.850440
vt 0.420474 0.499737
vt 0.321572 0.563864
vt 0.521711 0.508260
vt 0.585725 0.508327
vt 0.489317 0.666153
vt 0.526033 0.660771
vt 0.973979 0.231536
vt 0.938702 0.172371
vt 0.973979 0.138139
vt 0.458922 0.921688
vt 0.434680 0.875177
vt 0.458922 0.821118
vt 0.696404 0.047664
vt 0.000000 0.568935
vt 0.434680 0.676356
vt 0.469333 0.563864
vt 0.469333 0.700732
vt 0.480652 0.778375
vt 0.559112 0.599169
vt 0.480652 0.415074
vt 0.692121 0.447043
vt 0.938702 0.058276
vt 0.932738 0.395755
vt 0.938702 0.075521
vt 0.995279 -0.000000
vt 0.995279 0.138139
vt 0.227420 0.609043
vt 0.522991 0.564413
vt 0.536556 0.578018
s 1
usemtl Material.001
f 30/1/1 3/2/2 44/3/3
f 50/4/4 7/5/5 37/6/6
f 35/7/7 6/8/8 31/9/9
f 37/10/6 7/11/5 33/12/10
f 79/13/11 38/14/12 8/15/13
f 28/16/14 4/17/15 46/18/16
f 81/19/17 51/20/18 14/21/19
f 82/22/20 52/23/21 21/24/22
f 83/25/23 42/26/24 12/27/25
f 55/28/26 19/29/27 49/30/28
f 85/31/29 56/32/30 22/33/31
f 86/34/32 38/35/12 20/36/33
f 87/37/34 59/38/35 13/39/36
f 88/40/37 60/41/38 23/42/39
f 89/43/40 47/44/41 17/45/42
f 90/46/43 63/47/44 15/48/45
f 64/49/46 24/50/47 65/51/48
f 92/52/49 49/53/28 19/54/27
f 67/55/50 16/56/51 46/57/16
f 68/58/52 25/59/53 69/60/54
f 95/61/55 50/62/4 20/63/33
f 96/64/56 71/65/57 16/56/51
f 97/66/58 72/67/59 26/68/60
f 40/69/61 10/70/62 74/71/63
f 75/72/64 44/3/3 14/21/19
f 21/24/22 54/73/65 75/72/64
f 12/27/25 30/1/1 75/72/64
f 76/74/66 37/6/6 19/29/27
f 22/33/31 58/75/67 76/74/66
f 58/75/67 20/36/33 50/4/4
f 77/76/68 31/77/9 13/39/36
f 62/78/69 77/76/68 59/38/35
f 17/79/42 35/7/7 77/80/68
f 78/81/70 33/12/10 15/48/45
f 24/50/47 66/82/71 78/81/70
f 19/54/27 37/10/6 78/81/70
f 67/55/50 79/13/11 34/83/72
f 70/84/73 79/85/11 67/86/50
f 20/36/33 38/35/12 79/87/11
f 71/88/57 80/89/74 46/18/16
f 74/71/63 80/89/74 71/88/57
f 10/70/62 28/16/14 80/89/74
f 28/16/14 81/19/17 32/90/75
f 53/91/76 81/19/17 28/16/14
f 53/91/76 21/24/22 51/20/18
f 40/69/61 82/22/20 53/91/76
f 39/92/77 82/22/20 40/69/61
f 39/92/77 9/93/78 52/23/21
f 52/23/21 83/25/23 54/73/65
f 9/93/78 27/94/79 83/25/23
f 27/94/79 2/95/80 42/26/24
f 35/7/7 84/96/81 49/30/28
f 57/97/82 84/96/81 35/7/7
f 57/97/82 22/33/31 55/28/26
f 85/31/29 57/97/82 17/79/42
f 48/98/83 85/31/29 47/99/41
f 18/100/84 56/32/30 85/31/29
f 56/32/30 86/34/32 58/75/67
f 36/101/85 86/34/32 56/32/30
f 36/101/85 8/102/13 38/35/12
f 27/94/79 87/103/34 43/104/86
f 9/105/78 61/106/87 87/37/34
f 61/106/87 23/42/39 59/38/35
f 88/40/37 61/106/87 9/105/78
f 41/107/88 88/40/37 39/108/77
f 41/107/88 11/109/89 60/41/38
f 60/41/38 89/43/40 62/78/69
f 11/109/89 29/110/90 89/43/40
f 29/110/90 5/111/91 47/44/41
f 30/112/1 90/46/43 45/113/92
f 12/114/25 65/51/48 90/46/43
f 65/51/48 24/50/47 63/47/44
f 91/115/93 65/51/48 12/114/25
f 43/116/86 91/115/93 42/117/24
f 13/118/36 64/49/46 91/115/93
f 64/49/46 92/52/49 66/82/71
f 13/118/36 31/119/9 92/52/49
f 31/119/9 6/120/8 49/53/28
f 93/121/94 46/18/16 4/17/15
f 69/122/54 93/121/94 32/90/75
f 25/59/53 67/86/50 93/123/94
f 44/3/3 94/124/95 69/122/54
f 3/2/2 45/125/92 94/124/95
f 15/126/45 68/58/52 94/127/95
f 95/61/55 70/84/73 25/59/53
f 33/128/10 95/61/55 68/58/52
f 33/128/10 7/129/5 50/62/4
f 36/130/85 96/64/56 34/83/72
f 18/131/84 73/132/96 96/64/56
f 73/132/96 26/133/60 71/65/57
f 48/98/83 97/134/58 73/135/96
f 5/111/91 29/110/90 97/136/58
f 29/110/90 11/109/89 72/137/59
f 72/138/59 98/139/97 74/71/63
f 11/140/89 41/141/88 98/142/97
f 41/143/88 1/144/98 40/145/61
f 75/72/64 30/1/1 44/3/3
f 76/74/66 50/4/4 37/6/6
f 77/80/68 35/7/7 31/9/9
f 78/81/70 37/10/6 33/12/10
f 34/83/72 79/13/11 8/15/13
f 80/89/74 28/16/14 46/18/16
f 32/90/75 81/19/17 14/21/19
f 53/91/76 82/22/20 21/24/22
f 54/73/65 83/25/23 12/27/25
f 84/96/81 55/28/26 49/30/28
f 57/97/82 85/31/29 22/33/31
f 58/75/67 86/34/32 20/36/33
f 43/146/86 87/37/34 13/39/36
f 61/106/87 88/40/37 23/42/39
f 62/78/69 89/43/40 17/45/42
f 45/113/92 90/46/43 15/48/45
f 91/115/93 64/49/46 65/51/48
f 66/82/71 92/52/49 19/54/27
f 93/147/94 67/55/50 46/57/16
f 94/127/95 68/58/52 69/60/54
f 70/84/73 95/61/55 20/63/33
f 34/83/72 96/64/56 16/56/51
f 73/148/96 97/149/58 26/150/60
f 98/139/97 40/69/61 74/71/63
f 51/20/18 75/72/64 14/21/19
f 51/20/18 21/24/22 75/72/64
f 54/73/65 12/27/25 75/72/64
f 55/28/26 76/74/66 19/29/27
f 55/28/26 22/33/31 76/74/66
f 76/74/66 58/75/67 50/4/4
f 59/38/35 77/76/68 13/39/36
f 23/42/39 62/78/69 59/38/35
f 62/78/69 17/45/42 77/76/68
f 63/47/44 78/81/70 15/48/45
f 63/47/44 24/50/47 78/81/70
f 66/82/71 19/54/27 78/81/70
f 16/56/51 67/55/50 34/83/72
f 25/59/53 70/84/73 67/86/50
f 70/84/73 20/63/33 79/85/11
f 16/56/51 71/65/57 46/57/16
f 26/151/60 74/71/63 71/88/57
f 74/71/63 10/70/62 80/89/74
f 4/17/15 28/16/14 32/90/75
f 10/70/62 53/91/76 28/16/14
f 81/19/17 53/91/76 51/20/18
f 10/70/62 40/69/61 53/91/76
f 1/152/98 39/92/77 40/69/61
f 82/22/20 39/92/77 52/23/21
f 21/24/22 52/23/21 54/73/65
f 52/23/21 9/93/78 83/25/23
f 83/25/23 27/94/79 42/26/24
f 6/8/8 35/7/7 49/30/28
f 17/79/42 57/97/82 35/7/7
f 84/96/81 57/97/82 55/28/26
f 47/99/41 85/31/29 17/79/42
f 5/153/91 48/98/83 47/99/41
f 48/98/83 18/100/84 85/31/29
f 22/33/31 56/32/30 58/75/67
f 18/100/84 36/101/85 56/32/30
f 86/34/32 36/101/85 38/35/12
f 2/95/80 27/94/79 43/104/86
f 27/94/79 9/93/78 87/103/34
f 87/37/34 61/106/87 59/38/35
f 39/108/77 88/40/37 9/105/78
f 1/154/98 41/107/88 39/108/77
f 88/40/37 41/107/88 60/41/38
f 23/42/39 60/41/38 62/78/69
f 60/41/38 11/109/89 89/43/40
f 89/43/40 29/110/90 47/44/41
f 3/155/2 30/112/1 45/113/92
f 30/112/1 12/114/25 90/46/43
f 90/46/43 65/51/48 63/47/44
f 42/117/24 91/115/93 12/114/25
f 2/156/80 43/116/86 42/117/24
f 43/116/86 13/118/36 91/115/93
f 24/50/47 64/49/46 66/82/71
f 64/49/46 13/118/36 92/52/49
f 92/52/49 31/119/9 49/53/28
f 32/90/75 93/121/94 4/17/15
f 14/21/19 69/122/54 32/90/75
f 69/157/54 25/158/53 93/159/94
f 14/21/19 44/3/3 69/122/54
f 44/3/3 3/2/2 94/124/95
f 45/160/92 15/126/45 94/127/95
f 68/58/52 95/61/55 25/59/53
f 15/126/45 33/128/10 68/58/52
f 95/61/55 33/128/10 50/62/4
f 8/15/13 36/130/85 34/83/72
f 36/130/85 18/131/84 96/64/56
f 96/64/56 73/132/96 71/65/57
f 18/100/84 48/98/83 73/135/96
f 48/98/83 5/153/91 97/134/58
f 97/136/58 29/110/90 72/137/59
f 26/151/60 72/138/59 74/71/63
f 72/138/59 11/161/89 98/139/97
f 98/139/97 41/162/88 40/69/61
