# Blender 3.6.1
# www.blender.org
mtllib rock_lod_3.mtl
o Solid
v 0.000000 1.115131 0.000000
v 1.344766 -0.786655 0.000000
v -0.672383 -0.786655 -1.164601
v -0.672383 -0.786655 1.164601
vn 0.4714 0.3333 -0.8165
vn -0.9428 0.3333 -0.0000
vn 0.4714 0.3333 0.8165
vn -0.0000 -1.0000 -0.0000
vt 0.433013 -0.000000
vt 0.433013 0.500000
vt 0.000000 0.250000
vt 0.433013 0.433013
vt 0.683013 0.000000
vt 0.933013 0.433013
vt 0.433013 0.750000
vt 0.000000 1.000000
vt 0.000000 0.500000
vt 0.433013 0.750000
vt 0.866025 0.500000
vt 0.866025 1.000000
s 0
usemtl rock
f 1/1/1 2/2/1 3/3/1
f 1/4/2 3/5/2 4/6/2
f 1/7/3 4/8/3 2/9/3
f 2/10/4 4/11/4 3/12/4
